<?xml version="1.0" encoding="UTF-8" standalone="no"?>
<svg
   xmlns:dc="http://purl.org/dc/elements/1.1/"
   xmlns:cc="http://creativecommons.org/ns#"
   xmlns:rdf="http://www.w3.org/1999/02/22-rdf-syntax-ns#"
   xmlns:svg="http://www.w3.org/2000/svg"
   xmlns="http://www.w3.org/2000/svg"
   xmlns:sodipodi="http://sodipodi.sourceforge.net/DTD/sodipodi-0.dtd"
   xmlns:inkscape="http://www.inkscape.org/namespaces/inkscape"
   version="1.0"
   width="768pt"
   height="768pt"
   viewBox="0 0 768 768"
   preserveAspectRatio="xMidYMid meet"
   id="svg10"
   sodipodi:docname="logo.svg"
   inkscape:version="0.92.1 r"
   inkscape:export-filename="/home/jraleman/Downloads/K.I.F.T/kift-client/build/iconooo.png"
   inkscape:export-xdpi="1.5000001"
   inkscape:export-ydpi="1.5000001">
  <defs
     id="defs14" />
  <sodipodi:namedview
     pagecolor="#ffffff"
     bordercolor="#666666"
     borderopacity="1"
     objecttolerance="10"
     gridtolerance="10"
     guidetolerance="10"
     inkscape:pageopacity="0"
     inkscape:pageshadow="2"
     inkscape:window-width="729"
     inkscape:window-height="480"
     id="namedview12"
     showgrid="false"
     inkscape:zoom="0.19666667"
     inkscape:cx="-292.45759"
     inkscape:cy="508.38986"
     inkscape:window-x="645"
     inkscape:window-y="541"
     inkscape:window-maximized="0"
     inkscape:current-layer="svg10"
     fit-margin-top="0"
     fit-margin-left="0"
     fit-margin-right="0"
     fit-margin-bottom="0" />
  <metadata
     id="metadata2">
Created by potrace 1.10, written by Peter Selinger 2001-2011
<rdf:RDF>
  <cc:Work
     rdf:about="">
    <dc:format>image/svg+xml</dc:format>
    <dc:type
       rdf:resource="http://purl.org/dc/dcmitype/StillImage" />
    <dc:title></dc:title>
  </cc:Work>
</rdf:RDF>
</metadata>
  <g
     id="g4497"
     transform="matrix(1.0138614,0,0,1.0138614,-77.392823,-74.815255)">
    <circle
       r="375"
       cy="452.54239"
       cx="455.08472"
       id="path4491"
       style="fill:#f9f9f9;fill-opacity:1;stroke:#222222;stroke-width:7.5;stroke-miterlimit:4;stroke-dasharray:none;stroke-opacity:1" />
    <g
       style="fill:#000000;stroke:none"
       id="g8"
       transform="matrix(0.06075724,0,0,-0.06075724,191.28198,718.60436)">
      <path
         inkscape:connector-curvature="0"
         id="path4"
         d="m 897,8894 c -4,-4 -7,-1564 -7,-3466 V 1969 l 143,3 142,3 v 3460 3460 l -136,3 c -74,1 -138,-1 -142,-4 z" />
      <path
         inkscape:connector-curvature="0"
         id="path6"
         d="m 3786,7182 c -22,-15 -144,-131 -270,-258 -127,-127 -253,-248 -281,-269 -27,-21 -151,-138 -275,-260 -655,-647 -757,-747 -785,-764 -16,-10 -136,-125 -265,-255 -129,-130 -238,-236 -243,-236 -15,0 -266,-251 -314,-315 -25,-32 -54,-78 -65,-102 -10,-23 -23,-45 -28,-48 -6,-3 -10,-46 -10,-94 0,-67 4,-92 15,-101 8,-7 15,-16 15,-21 0,-14 587,-599 601,-599 7,0 139,-127 294,-282 154,-156 299,-297 321,-314 21,-18 156,-150 299,-294 143,-144 271,-268 285,-275 14,-7 151,-140 305,-294 154,-155 284,-281 289,-281 5,0 27,-17 50,-37 l 41,-37 6,-436 c 6,-435 15,-562 44,-603 8,-12 15,-38 15,-58 0,-20 7,-42 15,-49 8,-7 15,-25 15,-41 0,-15 4,-31 10,-34 5,-3 22,-31 36,-61 14,-30 29,-54 34,-54 4,0 10,-10 14,-23 3,-13 24,-44 46,-69 22,-26 40,-50 40,-55 0,-16 217,-213 234,-213 4,0 25,-14 48,-30 22,-17 47,-30 54,-30 7,0 17,-6 21,-13 8,-13 135,-77 152,-77 5,0 22,-6 38,-14 39,-19 93,-37 128,-43 17,-3 36,-11 44,-17 15,-12 124,-34 206,-42 28,-3 61,-10 74,-17 18,-9 381,-12 1545,-12 h 1521 l 3,141 c 2,125 1,142 -16,157 -16,15 -147,17 -1574,19 -1465,3 -1557,4 -1575,21 -11,9 -35,17 -56,17 -20,0 -58,7 -84,15 -26,8 -64,20 -83,26 -30,10 -142,63 -226,107 -25,13 -116,105 -123,124 -2,6 -21,36 -42,66 -22,30 -39,59 -39,64 0,5 -13,37 -30,71 -32,66 -69,195 -70,238 0,15 -6,32 -14,38 -8,7 -16,45 -20,103 -4,50 -11,99 -16,109 -6,10 -10,45 -10,79 0,34 -4,69 -9,78 -5,9 -11,66 -12,127 l -4,109 70,29 c 39,15 88,36 110,46 22,10 56,24 75,31 19,7 42,19 51,27 8,7 27,13 42,13 14,0 28,4 31,9 7,11 88,51 103,51 6,0 38,13 71,30 34,16 67,30 74,30 8,0 22,6 33,14 11,7 47,23 80,35 33,13 64,26 70,30 5,4 33,16 60,26 28,10 57,24 66,31 8,8 27,14 41,14 14,0 31,6 37,14 7,8 26,18 43,22 17,3 51,17 76,30 25,13 50,24 57,24 7,0 37,14 68,30 31,17 64,30 72,30 9,0 40,14 70,30 30,16 60,30 68,30 8,0 34,11 59,24 25,13 59,27 76,30 17,4 36,13 42,21 6,8 25,17 42,21 17,3 51,17 76,30 25,13 52,24 61,24 9,0 25,7 35,15 11,8 26,15 33,15 7,0 42,13 76,30 35,16 67,30 71,30 4,0 34,13 68,30 33,17 65,30 71,30 15,0 96,40 103,51 3,5 18,9 33,9 16,0 34,6 40,14 7,8 24,17 39,21 15,4 49,17 75,31 27,13 53,24 58,24 5,0 38,14 72,30 35,17 67,30 71,30 4,0 34,14 68,30 33,17 68,30 78,30 11,0 21,4 24,9 3,4 34,18 68,31 35,12 70,29 79,36 8,8 27,14 41,14 14,0 31,7 38,15 7,8 18,15 25,15 7,0 18,7 25,15 7,8 23,15 36,15 14,0 42,11 64,25 22,14 47,25 56,25 9,0 38,9 63,21 25,12 62,28 81,36 19,8 43,19 53,24 9,5 43,19 75,31 31,11 64,27 73,34 8,8 27,14 41,14 14,0 31,7 38,15 7,8 21,15 32,15 10,0 43,13 73,30 30,17 62,30 72,30 11,0 24,5 29,10 6,6 31,21 55,34 l 44,24 -2,79 c -10,321 -34,583 -58,646 -8,20 -15,46 -15,56 0,21 -27,118 -41,143 -5,10 -9,23 -9,31 0,7 -9,29 -20,50 -11,20 -20,46 -20,56 0,11 -5,23 -11,26 -5,4 -15,17 -20,28 -5,12 -17,34 -27,48 -9,14 -29,43 -43,65 -49,73 -224,234 -255,234 -2,0 -23,14 -46,30 -22,17 -45,30 -50,30 -6,0 -26,7 -46,16 -21,9 -52,22 -70,30 -18,8 -42,14 -54,14 -12,0 -29,6 -37,14 -14,12 -76,24 -216,42 -22,3 -51,11 -64,17 -36,18 -2035,17 -2052,0 -7,-7 -33,-13 -58,-13 -24,0 -58,-4 -75,-10 -30,-9 -112,-31 -186,-49 -74,-19 -169,-58 -232,-98 -21,-13 -44,-23 -51,-23 -8,0 -33,-13 -55,-30 -23,-16 -46,-30 -51,-30 -5,0 -16,-11 -25,-25 -9,-14 -22,-25 -28,-25 -16,0 -128,-111 -128,-127 0,-7 -11,-20 -25,-29 -14,-9 -25,-21 -25,-28 0,-6 -12,-29 -27,-51 -33,-48 -63,-105 -63,-120 0,-6 -8,-26 -18,-45 -10,-19 -24,-55 -31,-80 -7,-25 -17,-53 -22,-63 -5,-9 -12,-45 -16,-80 -3,-34 -12,-69 -19,-78 -24,-27 -36,-333 -40,-1011 -2,-351 -8,-638 -12,-638 -4,0 -116,108 -247,240 -132,132 -244,240 -249,240 -10,0 -236,220 -772,751 -133,131 -247,239 -254,239 -7,0 -119,107 -249,238 -131,130 -246,242 -257,247 -29,15 -154,149 -154,166 0,16 409,429 425,429 5,0 158,146 340,325 181,179 474,467 650,640 176,173 333,324 348,336 15,11 171,165 346,340 176,175 324,319 330,319 6,0 54,43 107,95 65,64 95,99 91,110 -6,13 -35,15 -199,14 -193,0 -193,0 -232,-27 z M 6860,4809 c 14,-9 54,-19 90,-22 61,-6 113,-19 152,-38 10,-5 27,-9 38,-9 12,0 37,-8 58,-19 20,-10 49,-21 63,-24 14,-4 56,-27 93,-52 37,-25 70,-45 73,-45 6,0 146,-147 186,-194 15,-19 27,-41 27,-49 0,-9 5,-19 11,-22 5,-4 14,-17 20,-28 5,-12 13,-29 18,-37 8,-14 17,-43 42,-145 22,-87 31,-186 26,-307 -3,-106 -7,-131 -22,-148 -10,-11 -24,-20 -32,-20 -7,0 -42,-14 -76,-30 -35,-17 -68,-30 -74,-30 -6,0 -35,-13 -66,-30 -31,-16 -65,-30 -76,-30 -10,0 -24,-6 -30,-14 -7,-8 -23,-17 -37,-20 -13,-4 -49,-18 -79,-31 -29,-14 -60,-25 -69,-25 -8,0 -17,-4 -20,-9 -3,-4 -27,-16 -53,-26 -26,-10 -80,-33 -120,-51 -39,-19 -78,-34 -86,-34 -9,0 -18,-4 -21,-9 -3,-4 -34,-18 -68,-31 -35,-12 -70,-29 -79,-36 -8,-8 -27,-14 -42,-14 -14,0 -29,-5 -32,-10 -8,-13 -89,-50 -109,-50 -8,0 -17,-4 -21,-9 -3,-5 -22,-15 -43,-22 -20,-6 -57,-21 -82,-32 -25,-11 -63,-27 -85,-37 -114,-48 -246,-106 -292,-126 -28,-13 -56,-24 -61,-24 -14,0 -71,-30 -77,-41 -4,-5 -19,-9 -34,-9 -16,0 -34,-7 -41,-15 -7,-8 -19,-15 -26,-15 -8,0 -43,-13 -77,-30 -35,-16 -69,-30 -74,-30 -6,0 -38,-13 -71,-30 -34,-16 -67,-30 -74,-30 -8,0 -22,-6 -33,-14 -11,-7 -47,-23 -80,-35 -33,-13 -64,-26 -70,-31 -6,-5 -33,-16 -60,-25 -28,-10 -57,-23 -66,-31 -8,-8 -26,-14 -39,-14 -13,0 -31,-6 -39,-13 -9,-7 -36,-21 -61,-31 -25,-10 -73,-31 -107,-47 -35,-16 -69,-29 -76,-29 -7,0 -22,-7 -33,-15 -10,-8 -27,-15 -37,-15 -9,0 -43,-13 -74,-30 -31,-16 -62,-30 -69,-30 -16,0 -77,-32 -86,-45 -4,-5 -21,-10 -38,-11 -17,-1 -39,-9 -48,-17 -9,-9 -30,-19 -47,-23 -16,-4 -50,-18 -74,-31 -24,-12 -48,-23 -54,-23 -6,0 -39,-14 -74,-30 -34,-17 -68,-30 -75,-30 -6,0 -20,-8 -30,-17 -12,-10 -22,-13 -28,-7 -12,12 -12,1697 1,1804 19,174 47,286 89,360 5,8 23,43 40,77 17,33 40,69 51,79 10,9 19,21 19,25 0,17 81,91 148,134 9,6 34,22 55,38 22,15 46,27 52,27 7,0 18,7 25,15 7,8 25,15 40,15 15,0 33,7 40,15 7,8 24,15 39,15 14,1 37,7 51,15 14,8 39,14 57,15 17,0 34,4 37,9 4,5 41,12 84,16 42,3 88,11 102,18 45,21 203,24 1005,23 712,-1 792,-3 815,-17 z" />
    </g>
  </g>
</svg>
